<svg style="" width="53.035714" height="53.035714" version="1.1" xmlns="http://www.w3.org/2000/svg">
<path d="M53.035714 42.678571 C53.035714 43.869054 52.619052 44.880948 51.785714 45.714286 L45.714286 51.785714 C44.880948 52.619052 43.869054 53.035714 42.678571 53.035714 C41.488089 53.035714 40.476195 52.619052 39.642857 51.785714 L26.517857 38.660714 L13.392857 51.785714 C12.559520 52.619052 11.547625 53.035714 10.357143 53.035714 C9.166661 53.035714 8.154766 52.619052 7.321429 51.785714 L1.250000 45.714286 C0.416662 44.880948 0.000000 43.869054 0.000000 42.678571 C0.000000 41.488089 0.416662 40.476195 1.250000 39.642857 L14.375000 26.517857 L1.250000 13.392857 C0.416662 12.559520 0.000000 11.547625 0.000000 10.357143 C0.000000 9.166661 0.416662 8.154766 1.250000 7.321429 L7.321429 1.250000 C8.154766 0.416663 9.166661 -0.000000 10.357143 -0.000000 C11.547625 -0.000000 12.559520 0.416663 13.392857 1.250000 L26.517857 14.375000 L39.642857 1.250000 C40.476195 0.416663 41.488089 -0.000000 42.678571 -0.000000 C43.869054 -0.000000 44.880948 0.416663 45.714286 1.250000 L51.785714 7.321429 C52.619052 8.154766 53.035714 9.166661 53.035714 10.357143 C53.035714 11.547625 52.619052 12.559520 51.785714 13.392857 L38.660714 26.517857 L51.785714 39.642857 C52.619052 40.476195 53.035714 41.488089 53.035714 42.678571 Z M57.946429 52.232143" style="fill:black"/>
</svg>